<?xml version="1.0" standalone="no"?>
<!DOCTYPE svg PUBLIC "-//W3C//DTD SVG 20010904//EN"
 "http://www.w3.org/TR/2001/REC-SVG-20010904/DTD/svg10.dtd">
<svg version="1.0" xmlns="http://www.w3.org/2000/svg"
 width="487.000000pt" height="324.000000pt" viewBox="0 0 487.000000 324.000000"
 preserveAspectRatio="xMidYMid meet">

<g transform="translate(0.000000,324.000000) scale(0.100000,-0.100000)"
fill="#000000" stroke="none">
<path d="M0 3120 l0 -120 81 0 c51 0 78 4 74 10 -3 6 3 10 14 10 11 0 23 -4
26 -10 3 -5 23 -10 43 -10 28 0 33 -3 22 -10 -11 -7 5 -10 51 -10 46 0 68 -4
72 -13 6 -15 77 -11 77 4 0 13 84 11 117 -3 20 -8 165 -12 503 -14 568 -2 698
-9 721 -35 14 -16 32 -19 110 -20 63 -1 86 -4 69 -9 -16 -5 15 -8 86 -9 61 -1
186 -4 277 -8 l167 -6 6 -34 c4 -23 12 -33 25 -33 14 0 19 7 19 30 0 23 4 30
20 30 11 0 20 -4 20 -10 0 -6 30 -10 69 -10 39 0 71 -5 73 -10 2 -7 52 -11
130 -12 70 0 125 -5 122 -9 -3 -5 -12 -9 -20 -9 -8 0 -14 -4 -14 -10 0 -5 18
-10 40 -10 29 0 40 -4 40 -15 0 -12 19 -15 103 -17 56 -1 119 -1 140 0 27 2
37 -2 37 -13 0 -12 13 -15 61 -15 37 0 58 -4 54 -10 -4 -6 45 -10 139 -10 91
0 146 -4 146 -10 0 -5 9 -10 19 -10 11 0 21 -5 23 -10 2 -6 12 -3 23 8 12 10
34 22 49 26 l29 7 -23 17 c-12 9 -34 26 -48 38 -15 11 -42 26 -59 33 -34 14
-44 31 -18 31 9 0 15 9 15 23 0 29 10 43 38 52 16 5 29 1 43 -11 14 -13 34
-17 77 -15 31 1 65 4 75 7 11 4 17 0 17 -10 0 -9 9 -16 20 -16 11 0 20 -4 20
-10 0 -5 14 -10 30 -10 23 0 30 -4 30 -20 0 -11 7 -20 15 -20 8 0 15 -4 15
-10 0 -5 11 -10 24 -10 13 0 27 -6 29 -12 4 -10 6 -10 6 0 1 6 7 12 14 12 8 0
12 -14 12 -40 0 -71 36 -85 163 -65 35 6 42 4 42 -9 0 -9 -7 -16 -15 -16 -15
0 -22 -19 -7 -21 98 -12 270 -15 350 -8 l62 6 0 -58 c0 -45 -3 -59 -15 -59
-11 0 -12 5 -5 26 12 32 12 34 0 34 -5 0 -10 -11 -10 -25 0 -19 -5 -25 -21
-25 -18 0 -20 -4 -14 -29 5 -24 3 -29 -18 -35 -16 -4 -29 -17 -35 -36 -6 -16
-17 -30 -24 -30 -9 0 -9 -3 2 -10 12 -8 11 -10 -7 -10 -13 0 -23 4 -23 10 0 5
-7 7 -15 4 -8 -4 -15 -1 -15 5 0 6 -4 11 -10 11 -5 0 -7 -6 -4 -13 5 -14 -2
-16 -53 -18 -63 -2 -193 -49 -193 -70 0 -6 -4 -8 -9 -4 -13 8 -22 -64 -21
-170 1 -49 -2 -152 -5 -229 -5 -85 -3 -136 2 -133 14 9 12 -26 -1 -36 -8 -6
-7 -10 1 -14 7 -2 13 -9 13 -14 0 -6 -4 -7 -10 -4 -13 8 -13 -21 0 -46 8 -14
7 -19 -1 -19 -6 0 -9 -6 -6 -13 4 -10 -5 -14 -29 -15 -19 -1 -40 -5 -46 -8 -7
-4 -8 -3 -4 4 4 7 18 12 31 12 l25 0 2 238 c3 245 -1 274 -37 290 -25 11 -85
-4 -85 -21 0 -13 -50 -29 -135 -43 -44 -8 -74 -29 -52 -37 9 -4 9 -6 0 -6 -8
-1 -13 -15 -13 -34 0 -18 -6 -39 -12 -45 -10 -10 -10 -15 1 -21 11 -7 9 -12
-10 -21 -15 -9 -24 -9 -27 -2 -4 12 -44 3 -54 -11 -3 -6 -16 -12 -27 -14 -21
-3 -21 1 -21 157 0 125 3 160 13 160 10 0 13 30 14 128 2 239 0 225 27 218 19
-5 25 -1 28 18 4 21 0 25 -26 29 -34 5 -66 -2 -66 -14 0 -4 -5 -20 -11 -36 -7
-16 -12 -97 -13 -187 l-1 -160 -32 -8 -33 -9 -1 -112 c-1 -62 -2 -167 -2 -234
0 -90 -4 -123 -13 -123 -12 0 -14 31 -3 40 4 3 0 28 -7 55 -7 28 -13 67 -14
88 0 20 -3 38 -7 38 -38 7 -53 5 -53 -7 0 -9 -13 -15 -35 -16 -19 -1 -43 -2
-52 -2 -17 -1 -25 19 -15 38 3 5 6 54 7 109 2 72 -1 105 -11 114 -16 17 -30
17 -37 0 -3 -7 -30 -19 -61 -26 l-56 -12 0 -49 c0 -52 -8 -60 -63 -60 -25 0
-29 -3 -17 -10 13 -9 13 -11 0 -20 -8 -5 -23 -10 -32 -10 -12 0 -19 -12 -24
-47 -5 -34 -15 -56 -36 -75 -16 -15 -28 -33 -27 -40 3 -28 -2 -39 -18 -36 -12
2 -19 -5 -21 -20 -3 -19 -9 -23 -35 -20 -29 3 -32 6 -35 43 -2 22 -10 44 -18
48 -9 5 -14 26 -14 61 0 45 -3 54 -20 59 -19 5 -20 14 -20 196 l0 191 30 0
c20 0 30 5 30 15 0 8 -4 15 -9 15 -19 0 -78 -24 -100 -42 -13 -10 -34 -18 -47
-18 l-24 0 0 -179 c0 -134 -3 -181 -12 -184 -10 -4 -10 -6 0 -6 18 -1 17 -234
-1 -253 -8 -7 -16 -20 -20 -28 -5 -15 -7 13 -9 165 -1 81 -14 115 -45 115 -16
0 -17 12 -2 27 6 6 9 26 7 44 l-4 34 -8 -42 c-5 -24 -13 -43 -18 -43 -6 0 -8
-12 -5 -26 4 -21 1 -25 -14 -21 -11 3 -19 1 -19 -4 0 -5 -8 -9 -17 -10 -16 0
-15 -2 2 -9 16 -7 12 -9 -15 -6 -20 1 -41 6 -48 10 -7 4 -19 0 -29 -9 -10 -11
-24 -14 -40 -10 -16 4 -35 0 -50 -10 -13 -9 -29 -15 -35 -13 -14 5 -20 37 -11
58 3 8 5 25 4 38 -2 14 3 22 13 22 9 0 16 5 16 12 0 9 3 9 12 0 7 -7 26 -11
42 -11 22 1 25 3 10 6 -12 2 -24 13 -27 25 -4 15 -11 19 -27 15 -21 -5 -21 -5
-18 174 2 143 1 176 -9 163 -7 -9 -10 -21 -7 -26 3 -5 0 -7 -7 -6 -10 2 -13
-20 -14 -89 0 -50 3 -89 6 -87 9 5 21 -139 11 -145 -18 -13 -43 -85 -41 -119
3 -53 1 -62 -14 -62 -7 0 -13 -10 -14 -21 -2 -27 -2 -27 -43 -34 -31 -5 -70
-37 -70 -57 0 -4 -11 -8 -25 -8 -24 0 -25 3 -24 48 1 26 7 50 13 54 8 5 7 8
-1 8 -9 0 -13 24 -15 83 -1 45 -3 65 -5 44 -3 -22 -11 -41 -19 -44 -13 -5 -13
-7 -2 -14 10 -7 10 -9 1 -9 -9 0 -13 -23 -13 -79 0 -44 -4 -83 -10 -86 -6 -4
-10 26 -10 84 0 49 -4 93 -10 96 -6 4 -10 -13 -10 -45 0 -52 -22 -100 -45
-100 -8 0 -12 -10 -11 -25 2 -13 -1 -22 -6 -19 -5 3 -7 12 -4 20 3 7 1 16 -4
19 -6 4 -10 -5 -10 -19 0 -14 -4 -26 -10 -26 -5 0 -10 -7 -10 -15 0 -8 -4 -15
-10 -15 -6 0 -11 33 -11 78 -1 42 -4 67 -6 55 -3 -16 -11 -23 -29 -23 -22 0
-24 -4 -24 -51 0 -32 -6 -56 -15 -66 -18 -18 -17 -19 -32 25 -6 17 -7 30 -2
26 5 -3 9 2 9 10 0 9 -6 16 -12 17 -74 4 -94 3 -100 -6 -5 -6 -8 -6 -8 1 0 7
-11 9 -25 6 -24 -4 -25 -7 -25 -88 0 -56 -4 -84 -11 -84 -8 0 -10 12 -6 35 3
19 2 35 -4 35 -5 0 -12 -19 -16 -42 -3 -24 -8 -37 -11 -30 -7 21 -21 14 -42
-20 l-20 -33 0 54 c0 56 -1 57 -51 37 -14 -6 -16 -1 -13 30 1 20 9 41 16 45
20 13 -39 11 -63 -1 -22 -12 -49 7 -49 35 0 9 -4 13 -10 10 -5 -3 -10 3 -10
15 0 12 -4 19 -9 16 -5 -3 -11 8 -13 24 -3 17 -1 30 3 30 4 0 6 12 4 28 -1 15
2 30 9 34 6 5 2 8 -11 8 -21 0 -23 -4 -23 -62 0 -37 6 -75 15 -92 17 -31 12
-66 -9 -66 -9 0 -12 -9 -8 -25 3 -20 0 -25 -17 -25 -16 0 -21 6 -21 24 0 19
-4 23 -21 19 -19 -5 -20 -3 -14 31 5 24 3 36 -4 36 -6 0 -11 -7 -11 -15 0 -9
-7 -18 -15 -21 -9 -4 -15 -20 -16 -43 0 -33 -1 -34 -10 -12 -5 13 -7 32 -4 42
11 35 -11 19 -28 -20 -15 -32 -21 -37 -42 -33 -16 3 -25 11 -25 23 0 11 6 18
13 17 7 -2 13 10 15 30 2 24 -1 32 -12 32 -18 0 -56 -34 -56 -50 0 -18 -18
-11 -25 10 -3 11 -10 20 -15 20 -5 0 -11 10 -13 23 -3 16 -5 13 -6 -10 -1 -26
-5 -33 -21 -33 -11 0 -20 -5 -20 -11 0 -7 -12 -10 -30 -7 -20 3 -30 0 -30 -9
0 -17 -17 -17 -23 0 -3 9 -11 9 -33 1 -20 -7 -37 -7 -52 -1 -18 8 -26 6 -41
-12 -19 -22 -20 -22 -30 -3 -14 26 -92 34 -140 14 -18 -7 -40 -11 -48 -8 -26
10 -63 -5 -63 -25 0 -10 -6 -19 -14 -19 -8 0 -16 -8 -19 -17 -2 -10 -4 4 -5
31 0 26 -5 53 -11 59 -6 6 -11 8 -11 3 0 -4 -8 0 -17 10 -11 11 -18 13 -21 5
-2 -6 -10 -11 -18 -11 -14 0 -18 -10 -15 -42 1 -9 -3 -19 -9 -23 -6 -4 -10 4
-10 19 0 14 -4 26 -9 26 -21 0 -41 -13 -41 -26 0 -9 -11 -14 -29 -14 -30 0
-41 18 -41 68 0 13 -6 22 -15 22 -17 0 -21 -35 -5 -45 13 -8 13 -45 0 -45 -5
0 -10 10 -10 21 0 18 -2 19 -15 9 -13 -11 -15 -7 -15 29 0 31 -4 41 -16 41
-11 0 -15 -8 -14 -27 4 -62 8 -60 -90 -58 -71 1 -90 -1 -90 -12 0 -8 4 -12 9
-8 20 12 22 -17 2 -31 -15 -11 -21 -26 -21 -55 0 -21 5 -39 11 -39 5 0 8 -4 4
-9 -3 -6 3 -14 12 -20 10 -6 13 -11 6 -11 -6 0 -15 5 -18 10 -13 21 -25 -3
-25 -50 0 -42 3 -49 23 -53 l22 -4 -22 -2 c-16 -1 -23 -7 -23 -22 0 -20 4 -21
68 -15 37 3 132 8 212 11 161 7 203 12 194 26 -3 5 4 9 15 9 29 0 37 21 15 37
-17 14 -16 14 16 8 19 -4 37 -11 38 -16 2 -5 7 -7 12 -4 5 3 53 6 107 6 54 1
105 5 114 10 8 4 21 4 28 -1 27 -16 0 -26 -63 -23 -71 3 -90 -10 -28 -21 70
-11 162 -7 162 8 0 9 -8 12 -25 8 -15 -2 -25 0 -25 7 0 6 5 11 11 11 5 0 7 5
3 11 -5 9 1 10 20 5 21 -5 26 -4 20 6 -5 10 -4 11 7 1 9 -9 51 -12 144 -11
126 2 127 2 45 8 -78 6 -72 7 70 10 119 3 141 5 95 10 -39 4 6 7 130 8 126 1
185 -2 175 -8 -10 -7 7 -9 55 -8 l70 1 -55 7 -55 7 73 1 c47 1 71 -2 67 -8 -3
-5 3 -10 15 -10 13 0 19 4 14 11 -4 8 -1 8 12 1 29 -15 35 -15 50 5 8 10 13
13 14 6 0 -13 54 -12 67 0 3 4 14 2 24 -3 12 -7 20 -7 24 0 3 5 12 10 18 10 7
0 6 -4 -3 -10 -12 -8 -11 -10 8 -10 12 0 22 5 22 10 0 6 4 10 9 10 13 0 9 -52
-5 -67 -6 -6 -14 -30 -18 -52 -6 -39 -7 -40 -54 -44 l-47 -3 47 -2 c42 -2 46
-4 40 -24 -3 -14 -2 -19 6 -14 7 4 12 19 13 34 0 15 5 36 10 47 8 17 8 16 4
-7 -3 -15 0 -48 7 -73 9 -34 9 -53 1 -75 -7 -18 -7 -32 -2 -36 5 -3 9 -12 9
-20 0 -8 -4 -13 -8 -10 -5 3 -8 -3 -8 -12 0 -55 -5 -82 -14 -77 -6 4 -7 -1 -3
-11 4 -11 8 -13 11 -6 2 7 8 9 13 6 6 -4 6 -11 -1 -19 -8 -10 -8 -20 2 -39 13
-25 15 -25 36 -10 12 8 22 24 22 34 0 10 5 20 11 22 8 3 6 9 -4 20 -9 8 -13
18 -10 22 4 3 0 6 -8 7 -8 0 -6 4 6 9 16 7 16 9 4 9 -24 1 -29 22 -29 109 0
81 9 110 30 97 10 -6 12 -1 8 19 -3 14 -1 26 3 26 5 0 10 -30 10 -67 1 -38 3
-59 6 -48 3 11 9 24 14 30 5 5 9 18 10 30 0 14 3 12 10 -10 9 -29 9 -208 0
-199 -9 9 -31 80 -31 102 0 12 -4 22 -8 22 -12 0 -4 -107 14 -197 1 -7 -2 -13
-7 -13 -5 0 -9 -4 -9 -10 0 -5 7 -10 16 -10 12 0 15 -7 11 -27 -3 -14 1 -32 7
-39 9 -9 17 -6 34 13 20 23 21 24 2 18 -25 -8 -28 20 -4 29 10 4 14 14 11 26
-3 11 0 20 6 20 7 0 12 16 12 40 0 22 -2 40 -6 40 -3 0 -5 19 -6 41 0 23 -6
45 -13 49 -8 5 -10 18 -4 41 5 19 9 39 10 44 5 29 17 55 26 55 5 0 2 7 -6 16
-9 8 -13 20 -10 25 9 15 -5 81 -16 74 -5 -3 -12 0 -16 6 -4 8 -3 9 4 5 7 -4
12 -3 12 2 0 13 371 2 388 -10 8 -7 12 -7 12 1 0 15 57 14 63 -1 4 -10 6 -10
6 0 1 15 31 16 31 1 0 -5 4 -7 10 -4 5 3 82 6 170 6 128 1 163 4 175 16 8 8
15 11 15 6 -1 -19 -18 -31 -56 -37 -53 -9 -133 -34 -116 -37 6 -1 17 -3 22 -4
6 -1 15 -3 20 -4 6 0 10 -5 10 -10 0 -5 -28 -12 -62 -15 -60 -5 -266 -22 -408
-33 -36 -3 -66 -9 -68 -14 -2 -5 -20 -10 -40 -10 -36 -1 -36 -1 -7 -8 17 -3
29 -10 27 -16 -4 -10 26 -24 43 -20 6 1 7 0 3 -2 -16 -9 -7 -23 15 -23 12 0
29 -5 37 -11 12 -9 11 -10 -7 -6 -13 3 -26 1 -29 -4 -3 -5 -23 -9 -45 -9 -49
0 -82 -25 -48 -35 17 -6 19 -9 8 -17 -11 -8 -10 -9 4 -4 9 3 25 9 35 12 15 5
15 4 2 -6 -12 -9 -8 -11 19 -6 26 5 32 3 27 -9 -3 -8 3 -19 12 -24 16 -10 16
-10 0 -11 -11 0 -15 -5 -12 -14 3 -8 14 -13 25 -11 11 2 17 0 14 -5 -3 -5 -1
-11 4 -14 5 -4 12 -2 16 3 3 6 13 7 21 4 13 -5 13 -7 2 -14 -8 -6 5 -9 35 -9
48 0 60 11 31 28 -26 15 -2 20 30 7 23 -10 25 -13 12 -18 -10 -4 -14 -11 -11
-17 8 -14 45 -13 45 1 0 8 4 9 13 0 8 -6 17 -8 21 -4 4 4 11 1 16 -7 7 -12 12
-12 22 -2 6 6 17 12 22 12 6 0 0 -7 -13 -16 -31 -22 -13 -38 33 -30 23 5 33
11 30 20 -3 7 2 16 11 20 9 3 13 2 10 -4 -3 -6 -1 -10 5 -10 7 0 9 8 5 20 -3
11 -3 20 2 20 4 0 8 20 8 45 0 35 -3 44 -14 40 -12 -5 -12 -3 -1 11 8 9 13 34
11 60 l-2 45 22 -22 c17 -17 22 -33 20 -62 -1 -23 2 -36 8 -33 14 9 25 -12 14
-27 -5 -7 -9 -19 -8 -27 0 -8 -4 -18 -10 -22 -5 -4 1 -8 15 -8 20 0 22 -2 10
-10 -10 -6 -11 -10 -2 -10 6 0 12 -7 12 -15 0 -8 -6 -15 -14 -15 -8 0 -18 -5
-21 -10 -4 -7 3 -8 20 -4 26 6 26 6 13 -17 -7 -13 -19 -29 -25 -37 -19 -20
-16 -23 13 -16 25 6 25 6 12 -17 -7 -13 -17 -27 -22 -30 -5 -4 -6 -14 -3 -22
3 -8 0 -20 -6 -26 -9 -9 -3 -10 23 -5 19 3 31 2 25 -3 -33 -27 -38 -43 -21
-62 17 -18 17 -20 -4 -31 -16 -8 -19 -17 -14 -33 4 -12 10 -24 15 -27 9 -6 6
-50 -5 -68 -5 -8 1 -12 16 -13 13 0 17 -3 11 -6 -27 -10 -11 -23 28 -23 33 0
38 -2 27 -13 -7 -7 -29 -18 -48 -24 -19 -6 -27 -11 -17 -12 10 -1 15 -5 12
-11 -4 -6 10 -10 37 -9 24 1 35 3 25 6 -9 2 -15 9 -12 13 3 5 17 5 32 -1 14
-5 28 -8 30 -5 6 5 -20 46 -28 46 -4 0 -5 21 -3 46 3 29 0 52 -8 61 -11 14 -9
15 19 9 31 -7 31 -7 28 31 -2 21 -8 49 -13 63 -8 20 -7 28 6 38 14 11 14 12 0
12 -9 0 -19 -7 -22 -16 -3 -8 -10 -13 -15 -9 -13 7 -7 71 8 89 9 11 8 17 -5
30 -12 12 -13 20 -5 30 6 7 7 16 3 21 -4 4 2 5 13 1 11 -3 27 -1 35 5 12 9 11
10 -6 6 -12 -2 -28 -1 -35 4 -11 7 -11 9 -1 9 10 0 9 4 -2 16 -9 8 -14 20 -10
25 3 5 -2 12 -10 15 -10 4 -14 16 -12 35 2 16 -1 29 -5 29 -5 0 -4 10 3 21 10
17 10 23 1 26 -9 3 -10 10 -3 23 12 23 42 16 39 -9 -3 -30 1 -42 11 -36 5 3
10 2 10 -4 0 -5 -5 -13 -11 -17 -17 -10 9 -23 34 -16 19 5 19 6 2 18 -16 12
-17 14 -2 20 9 3 15 10 12 14 -2 4 6 19 18 32 18 20 30 24 56 20 40 -6 35 -12
-11 -14 -29 -1 -34 -4 -30 -20 5 -22 28 -24 36 -3 3 8 13 15 21 15 9 0 13 -4
10 -10 -3 -5 2 -11 12 -11 10 -1 5 -4 -12 -8 l-30 -7 23 -13 c20 -10 27 -10
48 4 13 8 24 20 24 26 0 6 5 7 10 4 6 -3 10 -1 10 4 0 6 12 11 28 11 20 0 23
3 13 9 -11 7 -12 13 -3 23 6 8 13 41 16 73 3 36 11 64 20 70 13 10 12 13 -2
23 -15 10 -15 12 6 18 12 3 22 11 22 16 0 5 -4 7 -9 4 -4 -3 -19 3 -31 14
l-23 20 46 0 c35 0 47 -4 47 -15 0 -8 -6 -15 -12 -15 -7 -1 1 -7 17 -15 17 -7
24 -14 18 -14 -7 -1 -13 -10 -13 -22 0 -15 5 -19 15 -15 8 3 15 0 15 -6 0 -7
7 -3 16 8 15 18 15 17 10 -19 -3 -22 -1 -35 5 -32 13 9 11 -9 -3 -24 -11 -11
-10 -13 3 -8 12 4 18 -1 22 -19 2 -13 0 -27 -5 -30 -4 -3 -6 -10 -2 -15 3 -5
11 -6 17 -2 7 4 6 -1 -2 -11 -11 -13 -11 -16 -1 -14 7 2 13 -7 15 -20 1 -15
-3 -21 -12 -18 -8 3 -13 -2 -13 -14 0 -23 32 -35 58 -21 10 5 29 7 42 4 22 -6
23 -7 4 -14 -14 -5 -15 -8 -3 -8 8 -1 24 6 35 14 19 14 19 14 -3 15 -33 0 -33
22 -1 46 19 15 25 24 16 27 -7 2 6 10 29 16 49 13 75 35 67 56 -4 8 -1 15 7
15 7 0 10 3 6 6 -3 3 -15 3 -26 -1 -17 -5 -19 -10 -11 -24 13 -25 -29 -44 -78
-35 -31 6 -33 8 -17 15 11 4 14 8 8 8 -7 1 -13 7 -13 15 0 8 -6 17 -12 19 -7
3 -3 6 10 6 13 1 20 -3 17 -9 -3 -6 1 -7 9 -4 9 3 16 9 16 14 0 4 14 7 30 8
31 1 77 32 47 32 -9 0 -17 -5 -19 -11 -3 -9 -36 -13 -96 -10 -14 1 -21 5 -16
12 4 8 0 8 -15 0 -14 -8 -21 -8 -21 -1 0 5 0 13 0 18 0 4 5 7 10 7 6 0 10 3
10 8 0 4 0 14 0 22 0 8 -3 14 -7 14 -26 -4 -35 3 -15 12 13 5 20 13 17 19 -8
13 84 13 105 0 16 -10 11 -13 -35 -23 -11 -3 7 -5 39 -6 38 -1 63 -6 70 -15 8
-11 38 -15 111 -17 123 -3 171 -17 65 -19 -52 -1 -69 -4 -55 -10 15 -6 7 -9
-30 -10 -43 0 -47 -2 -30 -12 11 -7 21 -11 23 -10 1 2 9 -4 17 -11 8 -8 24
-12 37 -10 13 2 36 -2 51 -10 l29 -15 -33 -7 -33 -7 30 -13 c16 -7 32 -10 37
-8 4 2 7 -1 7 -6 0 -6 -12 -11 -26 -11 -14 0 -23 4 -19 10 3 6 -1 10 -10 10
-9 0 -13 -5 -10 -10 3 -6 -1 -13 -10 -17 -10 -3 -21 0 -25 7 -5 8 -9 9 -14 1
-4 -6 -2 -11 3 -11 6 0 11 -5 11 -10 0 -6 -11 -8 -25 -4 -34 8 -31 -7 4 -28
22 -12 31 -13 35 -5 2 7 5 4 5 -5 1 -12 7 -16 19 -12 14 5 15 4 2 -5 -8 -6
-25 -11 -37 -11 -12 0 -25 -5 -29 -11 -4 -7 -24 -9 -53 -6 -25 3 -38 3 -28 0
9 -2 15 -9 12 -14 -4 -5 8 -9 25 -9 16 0 38 -4 48 -9 21 -12 143 -41 174 -42
13 0 17 -3 11 -6 -7 -2 -13 -9 -13 -14 0 -6 4 -7 10 -4 6 3 10 2 10 -3 0 -6 9
-8 19 -5 17 4 19 1 16 -26 -2 -17 0 -33 5 -36 6 -3 7 1 4 9 -5 12 0 16 17 16
19 0 21 2 9 10 -13 8 -13 10 2 10 9 0 19 6 21 13 4 8 8 9 14 1 4 -6 17 -14 27
-18 18 -6 16 -10 -17 -43 -21 -20 -35 -38 -32 -42 4 -3 14 5 24 18 11 14 21
20 25 13 3 -6 0 -13 -6 -15 -9 -4 -8 -6 2 -6 9 -1 21 4 27 10 17 17 37 1 22
-17 -7 -8 -15 -11 -18 -6 -3 5 -26 3 -51 -4 -25 -7 -37 -12 -27 -13 9 -1 17
-5 17 -11 0 -9 -14 -14 -32 -12 -3 1 -9 -5 -12 -13 -6 -17 -6 -17 92 -20 72
-2 96 -10 76 -23 -5 -4 -10 -16 -9 -27 0 -15 8 -21 30 -23 28 -4 29 -3 13 15
-16 17 -15 18 23 21 21 1 39 -2 39 -8 0 -5 18 -19 40 -30 23 -12 38 -25 35
-30 -4 -6 3 -10 14 -10 23 0 29 -32 11 -60 -10 -17 -10 -17 -33 33 -10 21 -23
37 -30 34 -6 -2 -17 3 -24 12 -11 14 -12 11 -13 -16 0 -17 3 -40 7 -50 6 -15
9 -13 14 12 l7 30 1 -32 c1 -34 -7 -38 -43 -24 -10 4 -42 1 -70 -7 -28 -8 -75
-17 -105 -20 -30 -2 -49 -7 -42 -11 6 -4 40 -4 74 1 69 10 89 8 197 -16 81
-18 114 -34 92 -43 -17 -7 -5 -23 18 -23 11 0 24 -10 31 -22 10 -19 9 -20 -7
-14 -11 5 -45 10 -76 13 -32 3 -58 10 -58 14 0 12 -47 11 -55 -1 -3 -6 -18 -8
-33 -6 -26 5 -26 5 -7 -10 17 -13 18 -16 5 -24 -13 -9 -13 -10 0 -10 10 0 8
-6 -9 -19 l-24 -18 24 -8 c20 -6 15 -9 -29 -15 -62 -9 -69 -14 -53 -34 10 -12
5 -19 -31 -37 -40 -20 -98 -73 -98 -90 0 -4 5 -11 12 -15 7 -5 4 -10 -10 -15
-19 -7 -20 -12 -12 -34 8 -20 6 -27 -5 -31 -8 -4 -15 -15 -15 -25 0 -16 -4
-17 -26 -9 -34 13 -37 13 -31 -4 4 -10 -2 -16 -16 -19 -18 -3 -17 -5 6 -6 16
0 26 -5 22 -11 -4 -7 147 -10 444 -10 l451 0 0 1056 0 1056 -32 -7 c-18 -4
-41 -9 -50 -11 -12 -4 -18 0 -18 10 0 11 -9 16 -31 16 -16 0 -28 4 -24 9 3 6
-3 14 -12 20 -29 16 4 23 83 18 75 -5 94 -21 42 -36 l-33 -9 38 -1 37 -1 0 71
c0 61 -3 75 -21 90 -12 10 -26 16 -32 12 -6 -4 -3 -10 9 -14 14 -5 8 -8 -22
-8 -43 -1 -84 -32 -84 -64 0 -14 -6 -16 -27 -11 -16 4 -30 8 -31 10 -2 1 -1
32 3 68 7 61 9 65 36 71 29 7 41 25 17 25 -9 0 -10 2 -2 8 7 4 13 16 15 27 3
11 14 21 26 23 14 2 23 12 25 25 2 17 11 23 36 25 26 3 32 7 32 28 0 13 -4 24
-10 24 -5 0 -10 24 -10 54 0 49 2 54 20 51 20 -4 20 2 20 301 l0 304 -2435 0
-2435 0 0 -120z m3910 -32 c20 -6 77 -8 130 -5 80 5 92 3 77 -7 -22 -17 -263
-41 -312 -32 -26 5 -35 12 -33 23 3 19 66 44 88 36 8 -3 31 -10 50 -15z m-650
-7 c0 -5 -6 -11 -14 -14 -20 -8 -96 4 -90 14 7 12 104 12 104 0z m480 -36 l25
-8 -30 -9 c-44 -13 -226 -22 -270 -14 l-37 7 36 20 c41 21 67 24 83 8 17 -17
113 -21 113 -4 0 14 41 25 50 14 3 -3 16 -10 30 -14z m-380 -35 c0 -5 -10 -10
-22 -10 -19 0 -20 2 -8 10 19 13 30 13 30 0z m-102 -7 c-15 -2 -42 -2 -60 0
-18 2 -6 4 27 4 33 0 48 -2 33 -4z m-418 -153 c0 -5 -9 -10 -20 -10 -11 0 -20
5 -20 10 0 6 9 10 20 10 11 0 20 -4 20 -10z m940 -160 c0 -5 -4 -10 -10 -10
-5 0 -10 5 -10 10 0 6 5 10 10 10 6 0 10 -4 10 -10z m873 -41 c22 0 22 0 1 -9
-26 -10 -82 -1 -62 11 7 5 19 7 26 4 8 -3 23 -5 35 -6z m97 -143 c0 -3 -4 -8
-10 -11 -5 -3 -10 -1 -10 4 0 6 5 11 10 11 6 0 10 -2 10 -4z m-115 -246 c3 -5
2 -10 -4 -10 -5 0 -13 5 -16 10 -3 6 -2 10 4 10 5 0 13 -4 16 -10z m0 -40 c3
-5 1 -10 -4 -10 -6 0 -11 5 -11 10 0 6 2 10 4 10 3 0 8 -4 11 -10z m-228 -77
c-3 -10 -5 -4 -5 12 0 17 2 24 5 18 2 -7 2 -21 0 -30z m147 -178 c3 -9 0 -15
-9 -15 -9 0 -12 6 -9 15 4 8 7 15 9 15 2 0 5 -7 9 -15z m286 11 c0 -2 -9 -6
-20 -9 -11 -3 -20 -1 -20 4 0 5 9 9 20 9 11 0 20 -2 20 -4z m-1520 -66 c3 -15
13 -26 25 -28 11 -2 25 -10 31 -18 6 -8 20 -14 32 -14 18 0 21 -7 24 -72 3
-52 0 -76 -10 -84 -11 -10 -11 -13 0 -17 10 -4 9 -9 -5 -17 -9 -6 -15 -15 -12
-21 4 -5 2 -9 -4 -9 -6 0 -6 -11 0 -32 5 -18 9 -42 9 -53 0 -17 -2 -17 -10 -5
-8 12 -10 9 -10 -12 0 -16 -4 -28 -10 -28 -5 0 -10 9 -10 20 0 17 -7 20 -39
20 -45 0 -64 18 -57 53 2 14 2 28 -1 31 -4 3 -5 41 -4 83 2 88 23 142 56 144
17 1 17 2 3 6 -10 2 -18 9 -18 16 0 6 -9 1 -20 -11 -27 -29 -70 -30 -70 -2 0
15 7 20 25 20 21 0 25 5 25 31 0 26 3 30 22 27 15 -2 25 -12 28 -28z m1515 20
c-3 -5 -13 -10 -21 -10 -8 0 -12 5 -9 10 3 6 13 10 21 10 8 0 12 -4 9 -10z
m-215 -40 c12 -7 10 -9 -8 -7 -12 0 -22 5 -22 9 0 11 12 10 30 -2z m213 -7
c-7 -2 -19 -2 -25 0 -7 3 -2 5 12 5 14 0 19 -2 13 -5z m-223 -74 c0 -10 -4
-19 -10 -19 -5 0 -9 11 -8 24 3 28 18 24 18 -5z m-1640 -34 c0 -42 -3 -55 -15
-55 -11 0 -15 11 -15 40 0 22 5 40 10 40 6 0 10 7 10 15 0 8 2 15 5 15 3 0 5
-25 5 -55z m1593 39 c9 -10 -4 -34 -19 -34 -8 0 -14 6 -14 13 0 22 19 35 33
21z m2 -63 c-3 -6 -14 -11 -23 -11 -13 0 -13 2 4 14 21 15 30 14 19 -3z m41
-37 c-4 -9 -9 -15 -11 -12 -3 3 -3 13 1 22 4 9 9 15 11 12 3 -3 3 -13 -1 -22z
m-549 -16 c-3 -7 -5 -2 -5 12 0 14 2 19 5 13 2 -7 2 -19 0 -25z m503 17 c0 -8
-4 -15 -9 -15 -5 0 -11 7 -15 15 -3 9 0 15 9 15 8 0 15 -7 15 -15z m-2692 -13
c2 -7 -6 -12 -17 -12 -21 0 -27 11 -14 24 9 9 26 2 31 -12z m2059 -4 c-3 -8
-6 -5 -6 6 -1 11 2 17 5 13 3 -3 4 -12 1 -19z m-227 -8 c0 -5 -4 -10 -10 -10
-5 0 -10 5 -10 10 0 6 5 10 10 10 6 0 10 -4 10 -10z m930 -5 c0 -8 -4 -15 -10
-15 -5 0 -10 7 -10 15 0 8 5 15 10 15 6 0 10 -7 10 -15z m-2791 -39 c-14 -29
-24 -33 -33 -11 -3 9 0 15 10 15 8 0 17 7 21 15 3 9 7 14 10 12 2 -3 -2 -16
-8 -31z m246 25 c3 -5 1 -12 -5 -16 -5 -3 -10 1 -10 9 0 18 6 21 15 7z m1972
-23 c-3 -7 -5 -2 -5 12 0 14 2 19 5 13 2 -7 2 -19 0 -25z m-357 12 c0 -5 -2
-10 -4 -10 -3 0 -8 5 -11 10 -3 6 -1 10 4 10 6 0 11 -4 11 -10z m-2960 -50 c0
-5 -2 -10 -4 -10 -3 0 -8 5 -11 10 -3 6 -1 10 4 10 6 0 11 -4 11 -10z m217
-27 c-3 -10 -5 -4 -5 12 0 17 2 24 5 18 2 -7 2 -21 0 -30z m-846 15 c1 -7 0
-30 -1 -50 -1 -24 3 -38 10 -38 7 0 10 -7 6 -15 -3 -8 -1 -15 4 -15 6 0 10 -9
10 -20 0 -11 -7 -20 -15 -20 -8 0 -15 7 -15 15 0 8 -7 15 -16 15 -10 0 -14 6
-10 15 3 8 1 15 -4 15 -14 0 -12 84 2 98 16 16 28 15 29 0z m596 -27 c-14
-108 -34 -125 -39 -33 -3 67 -2 70 20 70 22 0 23 -4 19 -37z m-60 -3 c-3 -8
-6 -5 -6 6 -1 11 2 17 5 13 3 -3 4 -12 1 -19z m140 -35 c-3 -10 -5 -2 -5 17 0
19 2 27 5 18 2 -10 2 -26 0 -35z m-140 -20 c-3 -10 -5 -4 -5 12 0 17 2 24 5
18 2 -7 2 -21 0 -30z m1346 7 c3 -11 1 -18 -4 -14 -5 3 -9 12 -9 20 0 20 7 17
13 -6z m-682 -37 c-12 -20 -14 -14 -5 12 4 9 9 14 11 11 3 -2 0 -13 -6 -23z
m-1128 -50 c-7 -2 -19 -2 -25 0 -7 3 -2 5 12 5 14 0 19 -2 13 -5z m90 0 c-13
-2 -35 -2 -50 0 -16 2 -5 4 22 4 28 0 40 -2 28 -4z m4021 -20 c3 -16 4 -45 1
-65 l-5 -38 138 0 c92 0 132 -3 122 -10 -9 -6 -117 -9 -265 -8 -137 1 -198 4
-133 5 91 3 117 7 122 18 3 8 2 15 -2 15 -6 0 -6 54 0 98 3 22 16 13 22 -15z
m-2221 8 c13 -1 15 -5 8 -18 -5 -10 -13 -27 -16 -38 -7 -19 -8 -19 -17 5 -6
14 -14 32 -19 42 -6 12 -4 15 9 13 9 -2 25 -4 35 -4z m1614 -23 c-3 -8 -6 -5
-6 6 -1 11 2 17 5 13 3 -3 4 -12 1 -19z m-637 -4 c0 -2 -7 -4 -15 -4 -8 0 -15
4 -15 10 0 5 7 7 15 4 8 -4 15 -8 15 -10z m-2613 0 c-3 -3 -12 -4 -19 -1 -8 3
-5 6 6 6 11 1 17 -2 13 -5z m-198 -23 c22 -17 22 -17 -17 -17 -22 1 -38 3 -36
5 2 2 -1 10 -6 16 -16 19 33 16 59 -4z m3244 12 c-7 -2 -21 -2 -30 0 -10 3 -4
5 12 5 17 0 24 -2 18 -5z m-2976 -19 c-3 -3 -45 -7 -94 -9 -70 -2 -77 -1 -33
5 75 9 135 11 127 4z m2911 -15 c-2 -6 -8 -10 -13 -10 -5 0 -11 4 -13 10 -2 6
4 11 13 11 9 0 15 -5 13 -11z m589 -55 c-3 -3 -12 -4 -19 -1 -8 3 -5 6 6 6 11
1 17 -2 13 -5z m-1187 -24 c0 -5 -2 -10 -4 -10 -3 0 -8 5 -11 10 -3 6 -1 10 4
10 6 0 11 -4 11 -10z m325 -10 c3 -5 -1 -10 -10 -10 -9 0 -13 5 -10 10 3 6 8
10 10 10 2 0 7 -4 10 -10z m-785 -20 c0 -5 -5 -10 -11 -10 -5 0 -7 5 -4 10 3
6 8 10 11 10 2 0 4 -4 4 -10z m127 -26 c-3 -3 -12 -4 -19 -1 -8 3 -5 6 6 6 11
1 17 -2 13 -5z m50 0 c-3 -3 -12 -4 -19 -1 -8 3 -5 6 6 6 11 1 17 -2 13 -5z
m1006 -14 c-6 -24 -10 -25 -29 -6 -14 14 -10 18 28 25 3 0 4 -8 1 -19z m-343
-50 c12 -8 11 -10 -5 -10 -12 0 -27 -6 -34 -12 -11 -10 -10 -8 0 10 16 25 18
26 39 12z m362 -17 c-6 -2 -10 -9 -6 -14 3 -5 -4 -9 -15 -9 -11 0 -22 4 -25 9
-7 11 11 19 39 19 11 0 14 -2 7 -5z m-1019 -39 c-3 -15 -20 -15 -26 0 -4 9 0
13 11 12 9 -2 16 -7 15 -12z m37 6 c0 -5 -2 -10 -4 -10 -3 0 -8 5 -11 10 -3 6
-1 10 4 10 6 0 11 -4 11 -10z m-160 -10 c0 -5 -5 -10 -11 -10 -5 0 -7 5 -4 10
3 6 8 10 11 10 2 0 4 -4 4 -10z m57 -16 c-3 -3 -12 -4 -19 -1 -8 3 -5 6 6 6
11 1 17 -2 13 -5z m1658 -264 c3 -5 2 -10 -4 -10 -5 0 -13 5 -16 10 -3 6 -2
10 4 10 5 0 13 -4 16 -10z m52 -27 c5 -13 -33 -24 -54 -16 -11 4 -9 9 9 18 26
14 40 14 45 -2z m-1207 -88 c0 -8 -4 -15 -10 -15 -5 0 -10 7 -10 15 0 8 5 15
10 15 6 0 10 -7 10 -15z m20 -45 c8 -5 11 -10 5 -10 -5 0 -17 5 -25 10 -8 5
-10 10 -5 10 6 0 17 -5 25 -10z m1625 -160 c3 -6 -1 -7 -9 -4 -18 7 -21 14 -7
14 6 0 13 -4 16 -10z"/>
<path d="M3970 2840 c0 -5 7 -10 16 -10 8 0 12 5 9 10 -3 6 -10 10 -16 10 -5
0 -9 -4 -9 -10z"/>
<path d="M3240 2710 c0 -5 9 -10 20 -10 11 0 20 5 20 10 0 6 -9 10 -20 10 -11
0 -20 -4 -20 -10z"/>
<path d="M3645 2670 c-3 -5 3 -10 15 -10 12 0 18 5 15 10 -3 6 -10 10 -15 10
-5 0 -12 -4 -15 -10z"/>
<path d="M3908 2560 c2 -16 10 -30 17 -30 7 0 15 14 17 30 4 25 1 30 -17 30
-18 0 -21 -5 -17 -30z"/>
<path d="M3968 2560 c5 -33 4 -32 25 -24 20 7 10 54 -12 54 -14 0 -17 -7 -13
-30z"/>
<path d="M4680 2560 c0 -5 9 -10 20 -10 11 0 20 5 20 10 0 6 -9 10 -20 10 -11
0 -20 -4 -20 -10z"/>
<path d="M4600 2540 c0 -13 7 -20 20 -20 13 0 20 7 20 20 0 13 -7 20 -20 20
-13 0 -20 -7 -20 -20z"/>
<path d="M4675 2470 c-3 -5 1 -10 9 -10 9 0 16 5 16 10 0 6 -4 10 -9 10 -6 0
-13 -4 -16 -10z"/>
<path d="M4745 2409 c-4 -6 -4 -13 -1 -16 8 -8 36 5 36 17 0 13 -27 13 -35 -1z"/>
<path d="M4186 2325 c4 -8 8 -15 10 -15 2 0 4 7 4 15 0 8 -4 15 -10 15 -5 0
-7 -7 -4 -15z"/>
<path d="M4760 2290 c0 -5 5 -10 11 -10 5 0 7 5 4 10 -3 6 -8 10 -11 10 -2 0
-4 -4 -4 -10z"/>
<path d="M3880 2214 c0 -11 5 -14 16 -10 9 3 20 6 25 6 5 0 9 5 9 10 0 6 -11
10 -25 10 -16 0 -25 -6 -25 -16z"/>
<path d="M3527 2181 c-3 -15 0 -19 14 -18 11 1 19 9 19 19 0 24 -26 23 -33 -1z"/>
<path d="M2251 2004 c0 -11 3 -14 6 -6 3 7 2 16 -1 19 -3 4 -6 -2 -5 -13z"/>
<path d="M2314 2005 c4 -24 16 -30 16 -7 0 12 -4 22 -9 22 -5 0 -8 -7 -7 -15z"/>
<path d="M2376 1955 c-11 -8 -15 -15 -9 -15 6 0 16 7 23 15 16 19 11 19 -14 0z"/>
<path d="M2530 1920 c0 -5 10 -10 23 -10 18 0 19 2 7 10 -19 13 -30 13 -30 0z"/>
<path d="M2066 1884 c-10 -27 -7 -51 8 -51 8 0 14 8 13 18 -1 10 -5 15 -10 12
-5 -3 -6 4 -2 16 7 24 0 29 -9 5z"/>
<path d="M1875 1830 c3 -5 8 -10 11 -10 2 0 4 5 4 10 0 6 -5 10 -11 10 -5 0
-7 -4 -4 -10z"/>
<path d="M1841 1788 c0 -14 -7 -29 -13 -31 -7 -3 12 -5 42 -5 39 1 44 2 18 5
-31 4 -37 8 -41 31 l-4 27 -2 -27z"/>
<path d="M801 1772 c-10 -20 -16 -120 -6 -111 5 6 24 123 20 127 -2 2 -8 -5
-14 -16z"/>
<path d="M1632 1760 c-17 -28 -15 -54 7 -74 12 -11 17 -25 13 -38 -3 -14 -1
-19 6 -14 13 8 16 65 6 115 -8 36 -14 39 -32 11z"/>
<path d="M2250 1760 c8 -5 20 -10 25 -10 6 0 3 5 -5 10 -8 5 -19 10 -25 10 -5
0 -3 -5 5 -10z"/>
<path d="M990 1710 c0 -5 7 -7 15 -4 8 4 15 8 15 10 0 2 -7 4 -15 4 -8 0 -15
-4 -15 -10z"/>
<path d="M1695 1660 c-3 -5 -1 -10 4 -10 6 0 11 5 11 10 0 6 -2 10 -4 10 -3 0
-8 -4 -11 -10z"/>
<path d="M1325 1409 c-5 -7 5 -8 32 -3 51 9 54 14 10 14 -20 0 -39 -5 -42 -11z"/>
<path d="M1493 1413 c9 -2 23 -2 30 0 6 3 -1 5 -18 5 -16 0 -22 -2 -12 -5z"/>
<path d="M1180 1392 c0 -5 14 -7 30 -4 17 2 30 6 30 8 0 2 -13 4 -30 4 -16 0
-30 -4 -30 -8z"/>
<path d="M1258 1393 c7 -3 16 -2 19 1 4 3 -2 6 -13 5 -11 0 -14 -3 -6 -6z"/>
<path d="M997 1373 c-28 -7 -9 -23 29 -23 25 0 34 4 34 16 0 13 -3 14 -13 5
-8 -6 -18 -7 -23 -2 -5 4 -17 6 -27 4z"/>
<path d="M1088 1368 c23 -9 387 -10 378 -1 -4 4 -95 8 -201 8 -107 0 -186 -3
-177 -7z"/>
<path d="M1708 1373 c39 -2 105 -2 145 0 39 1 7 3 -73 3 -80 0 -112 -2 -72 -3z"/>
<path d="M940 1360 c-8 -5 -11 -13 -6 -17 5 -4 11 -2 13 5 3 6 10 9 15 6 7 -4
8 -2 4 4 -9 14 -7 14 -26 2z"/>
<path d="M900 1349 c0 -5 5 -7 10 -4 6 3 10 8 10 11 0 2 -4 4 -10 4 -5 0 -10
-5 -10 -11z"/>
<path d="M2425 1350 c-3 -5 -1 -10 4 -10 6 0 11 5 11 10 0 6 -2 10 -4 10 -3 0
-8 -4 -11 -10z"/>
<path d="M2488 1353 c17 -2 47 -2 65 0 17 2 3 4 -33 4 -36 0 -50 -2 -32 -4z"/>
<path d="M2243 1333 c15 -2 39 -2 55 0 15 2 2 4 -28 4 -30 0 -43 -2 -27 -4z"/>
<path d="M1548 1323 c6 -2 18 -2 25 0 6 3 1 5 -13 5 -14 0 -19 -2 -12 -5z"/>
<path d="M1612 1318 c4 -15 -80 -25 -302 -33 -85 -3 -166 -7 -180 -9 -64 -7
-126 -19 -137 -28 -6 -5 -14 -5 -16 -1 -6 9 -51 9 -245 -1 -64 -4 -184 -9
-267 -12 -82 -2 -158 -7 -167 -10 -14 -4 -17 -1 -12 13 5 17 5 17 -6 1 -12
-19 -70 -25 -70 -8 0 6 -5 10 -11 10 -5 0 -8 -4 -5 -9 4 -5 -27 -9 -69 -9 -41
0 -79 -3 -84 -6 -5 -4 -12 0 -14 6 -4 10 -8 9 -16 -2 -28 -40 -20 -42 177 -34
203 8 250 8 327 4 l50 -3 -45 -8 c-25 -4 -79 -8 -120 -8 -50 -1 -70 -4 -61
-10 20 -13 -17 -21 -89 -20 -96 2 -107 0 -90 -12 11 -7 -3 -9 -52 -4 -47 5
-72 3 -87 -7 -23 -14 -29 -30 -8 -23 28 10 107 13 107 4 0 -8 -42 -13 -87 -12
-7 1 -13 -3 -13 -9 0 -5 -4 -6 -10 -3 -5 3 -10 -3 -10 -14 0 -14 6 -21 18 -21
32 0 206 40 238 55 17 8 75 22 130 30 54 9 114 20 131 26 18 6 81 16 140 23
l108 14 -90 2 c-77 2 -84 4 -50 11 55 11 206 10 180 -1 -19 -8 -19 -9 2 -9 12
-1 91 8 175 19 84 10 206 22 271 26 65 4 114 10 108 13 -10 7 126 25 269 36
157 13 195 18 214 26 23 10 -149 5 -197 -5 -17 -4 -26 -3 -23 3 4 5 2 13 -4
16 -6 4 -9 1 -8 -7z m-714 -105 c-10 -2 -26 -2 -35 0 -10 3 -2 5 17 5 19 0 27
-2 18 -5z"/>
<path d="M2350 1320 c-11 -8 -7 -9 15 -4 37 8 45 14 19 14 -10 0 -26 -5 -34
-10z"/>
<path d="M2248 1293 c6 -2 18 -2 25 0 6 3 1 5 -13 5 -14 0 -19 -2 -12 -5z"/>
<path d="M1790 1270 l-65 -7 62 -1 c34 -1 65 3 68 8 3 6 5 9 3 8 -2 -1 -32 -4
-68 -8z"/>
<path d="M3713 1253 c14 -16 15 -22 5 -26 -10 -4 -10 -7 1 -15 12 -9 12 -13 2
-26 -16 -19 -5 -22 12 -3 20 21 15 52 -12 72 l-26 19 18 -21z"/>
<path d="M1498 1253 c23 -2 61 -2 85 0 23 2 4 4 -43 4 -47 0 -66 -2 -42 -4z"/>
<path d="M2190 1220 c19 -13 30 -13 30 0 0 6 -10 10 -22 10 -19 0 -20 -2 -8
-10z"/>
<path d="M3590 1201 c0 -16 28 -20 34 -5 4 9 -1 14 -14 14 -11 0 -20 -4 -20
-9z"/>
<path d="M2200 1190 c0 -5 5 -10 11 -10 5 0 7 5 4 10 -3 6 -8 10 -11 10 -2 0
-4 -4 -4 -10z"/>
<path d="M3670 1159 c0 -7 -8 -18 -17 -25 -10 -7 -13 -14 -6 -14 14 0 43 27
43 41 0 5 -4 9 -10 9 -5 0 -10 -5 -10 -11z"/>
<path d="M3750 1160 c8 -5 20 -10 25 -10 6 0 3 5 -5 10 -8 5 -19 10 -25 10 -5
0 -3 -5 5 -10z"/>
<path d="M2203 1153 c-27 -5 -29 -20 -8 -49 8 -12 12 -31 10 -43 -2 -11 0 -21
5 -21 5 0 8 12 6 28 -1 15 1 42 5 60 4 17 6 31 5 31 0 -1 -11 -4 -23 -6z"/>
<path d="M3216 1105 c-11 -8 -16 -15 -10 -15 5 -1 -3 -8 -18 -16 -31 -16 -37
-34 -11 -34 9 0 14 -3 11 -6 -4 -3 2 -14 13 -25 20 -20 34 -26 24 -9 -3 6 0
10 7 10 8 1 6 6 -6 15 -17 13 -17 15 -3 15 9 0 23 10 31 22 l16 22 1 -24 c1
-18 3 -20 6 -7 3 10 -4 28 -14 39 -10 12 -12 18 -5 14 6 -4 12 -2 12 3 0 16
-32 13 -54 -4z"/>
<path d="M3609 1109 c-11 -7 -11 -9 -1 -9 7 0 10 -4 7 -10 -3 -5 1 -10 9 -10
21 0 26 13 11 27 -7 7 -17 8 -26 2z"/>
<path d="M3715 1101 c4 -14 2 -21 -6 -21 -7 0 -10 -3 -6 -6 8 -8 47 5 47 16 0
5 -9 14 -21 21 -19 10 -20 8 -14 -10z"/>
<path d="M3670 1066 c0 -2 7 -9 15 -16 13 -11 14 -10 9 4 -5 14 -24 23 -24 12z"/>
<path d="M1955 1050 c3 -5 8 -10 11 -10 2 0 4 5 4 10 0 6 -5 10 -11 10 -5 0
-7 -4 -4 -10z"/>
<path d="M3450 1035 c5 -6 8 -14 5 -16 -2 -3 4 -6 13 -7 9 -1 26 -3 36 -4 40
-6 24 19 -19 29 -35 8 -43 8 -35 -2z"/>
<path d="M2416 1005 c4 -8 13 -15 21 -15 13 0 13 3 3 15 -7 8 -16 15 -21 15
-5 0 -6 -7 -3 -15z"/>
<path d="M2201 994 c0 -11 3 -14 6 -6 3 7 2 16 -1 19 -3 4 -6 -2 -5 -13z"/>
<path d="M3268 993 c7 -3 16 -2 19 1 4 3 -2 6 -13 5 -11 0 -14 -3 -6 -6z"/>
<path d="M3465 980 c-3 -5 -21 -11 -38 -11 -30 -2 -31 -2 -4 -6 36 -6 34 -22
-4 -30 -22 -4 -27 -8 -17 -14 7 -5 8 -9 3 -9 -6 0 -11 -9 -12 -20 -1 -14 4
-20 20 -20 29 -1 63 -26 45 -33 -11 -4 -11 -6 0 -6 22 -2 3 -21 -21 -22 -20
-1 -20 -2 3 -9 22 -7 23 -8 4 -9 -12 -1 -27 -8 -34 -16 -11 -13 -8 -15 13 -15
19 0 25 -4 21 -15 -4 -10 0 -15 11 -15 28 0 7 -17 -30 -24 -42 -8 -56 -26 -20
-26 15 0 36 -5 47 -11 18 -10 20 -9 15 5 -6 15 14 22 46 17 4 0 7 4 7 9 0 6
-6 10 -12 10 -8 0 -13 13 -12 32 0 18 -2 44 -6 58 -5 20 0 30 24 52 17 15 25
28 18 28 -7 0 -10 5 -7 10 3 6 -2 10 -12 11 -16 0 -17 1 -1 7 21 8 11 28 -17
35 -19 5 -19 5 3 12 30 10 28 35 -2 35 -14 0 -28 -4 -31 -10z"/>
<path d="M3530 981 c0 -11 26 -22 34 -14 3 3 3 10 0 14 -7 12 -34 11 -34 0z"/>
<path d="M3770 980 c34 -11 60 -11 35 0 -11 5 -29 8 -40 8 -16 0 -15 -2 5 -8z"/>
<path d="M2417 966 c-4 -10 -1 -13 9 -9 15 6 19 23 5 23 -5 0 -11 -7 -14 -14z"/>
<path d="M2595 970 c-3 -5 -1 -10 4 -10 6 0 11 5 11 10 0 6 -2 10 -4 10 -3 0
-8 -4 -11 -10z"/>
<path d="M3710 945 c0 -8 8 -15 18 -15 11 -1 6 -6 -13 -15 -25 -11 -26 -14
-10 -15 11 -1 27 -2 35 -1 10 0 11 -1 3 -5 -19 -8 -16 -32 5 -37 12 -3 11 -5
-6 -6 -13 0 -21 -5 -17 -10 3 -5 1 -12 -5 -16 -5 -3 -10 -28 -10 -55 0 -41 3
-48 16 -43 10 4 14 13 11 27 -4 16 4 29 33 51 22 17 39 36 40 44 0 7 6 11 15
8 8 -4 17 -2 20 3 4 6 -5 10 -19 10 -32 0 -40 14 -21 34 13 13 13 15 -7 22
-12 3 -28 13 -36 20 -18 19 -52 18 -52 -1z"/>
<path d="M2750 935 c-7 -9 -8 -15 -2 -15 5 0 12 7 16 15 3 8 4 15 2 15 -2 0
-9 -7 -16 -15z"/>
<path d="M2427 926 c-4 -10 -5 -21 -2 -24 9 -9 17 6 13 25 -3 17 -4 17 -11 -1z"/>
<path d="M3235 921 c-3 -6 3 -14 12 -20 17 -10 17 -10 1 -11 -26 0 -22 -15 7
-28 32 -15 38 -2 19 37 -16 32 -28 39 -39 22z"/>
<path d="M2005 890 c3 -5 12 -10 20 -10 8 0 17 5 20 10 4 6 -5 10 -20 10 -15
0 -24 -4 -20 -10z"/>
<path d="M2748 883 c7 -3 16 -2 19 1 4 3 -2 6 -13 5 -11 0 -14 -3 -6 -6z"/>
<path d="M3365 849 c-11 -4 -36 -8 -54 -8 -22 -1 -31 -5 -25 -10 16 -16 69
-16 92 1 26 18 17 30 -13 17z"/>
<path d="M3969 858 c-5 -15 -4 -48 1 -48 13 0 28 23 23 36 -4 12 -21 20 -24
12z"/>
<path d="M3778 783 c7 -3 16 -2 19 1 4 3 -2 6 -13 5 -11 0 -14 -3 -6 -6z"/>
<path d="M3536 765 c4 -8 8 -15 10 -15 2 0 4 7 4 15 0 8 -4 15 -10 15 -5 0 -7
-7 -4 -15z"/>
<path d="M2453 685 c-3 -9 -3 -19 1 -22 3 -3 -2 -11 -11 -18 -8 -6 -14 -18
-11 -25 3 -10 9 -8 24 7 10 11 26 23 34 26 10 3 7 6 -8 6 -19 1 -22 5 -17 21
7 23 -3 27 -12 5z"/>
<path d="M3710 665 c0 -20 5 -25 27 -25 l26 0 -23 25 c-13 14 -25 25 -27 25
-2 0 -3 -11 -3 -25z"/>
<path d="M4168 663 c7 -3 16 -2 19 1 4 3 -2 6 -13 5 -11 0 -14 -3 -6 -6z"/>
<path d="M2473 585 c-9 -24 1 -27 15 -5 8 13 8 20 2 20 -6 0 -13 -7 -17 -15z"/>
<path d="M3830 586 c0 -8 -6 -17 -12 -20 -7 -3 -4 -5 7 -3 20 2 35 37 16 37
-6 0 -11 -6 -11 -14z"/>
<path d="M2472 538 c-14 -14 -16 -28 -3 -28 9 0 24 30 18 36 -2 2 -9 -2 -15
-8z"/>
<path d="M3868 503 c6 -2 18 -2 25 0 6 3 1 5 -13 5 -14 0 -19 -2 -12 -5z"/>
<path d="M4355 500 c3 -5 10 -10 16 -10 5 0 9 5 9 10 0 6 -7 10 -16 10 -8 0
-12 -4 -9 -10z"/>
<path d="M3860 460 c0 -5 7 -10 16 -10 8 0 12 5 9 10 -3 6 -10 10 -16 10 -5 0
-9 -4 -9 -10z"/>
<path d="M2965 440 l-30 -7 27 -7 c28 -8 48 -2 48 15 0 10 -1 10 -45 -1z"/>
<path d="M3790 380 c0 -5 4 -10 9 -10 6 0 13 5 16 10 3 6 -1 10 -9 10 -9 0
-16 -4 -16 -10z"/>
<path d="M4023 383 c9 -2 23 -2 30 0 6 3 -1 5 -18 5 -16 0 -22 -2 -12 -5z"/>
<path d="M2978 373 c7 -3 16 -2 19 1 4 3 -2 6 -13 5 -11 0 -14 -3 -6 -6z"/>
<path d="M3820 350 c0 -5 5 -10 10 -10 6 0 10 5 10 10 0 6 -4 10 -10 10 -5 0
-10 -4 -10 -10z"/>
<path d="M35 300 c3 -5 12 -7 20 -3 21 7 19 13 -6 13 -11 0 -18 -4 -14 -10z"/>
<path d="M3150 300 c-12 -8 -9 -10 13 -10 16 0 26 4 22 10 -8 12 -16 12 -35 0z"/>
<path d="M0 289 c0 -5 5 -7 10 -4 5 3 10 8 10 11 0 2 -4 4 -10 4 -5 0 -10 -5
-10 -11z"/>
<path d="M990 260 c-9 -6 -10 -10 -3 -10 6 0 15 5 18 10 8 12 4 12 -15 0z"/>
<path d="M105 242 c-16 -2 -34 -8 -40 -13 -5 -5 -22 -9 -37 -9 -27 0 -28 -2
-28 -45 0 -45 13 -58 36 -35 5 5 41 11 79 13 l70 4 -78 -1 c-67 -1 -75 1 -60
12 10 8 30 18 46 24 15 5 27 14 27 19 0 5 8 9 18 9 9 0 24 5 32 11 12 9 12 10
-4 5 -11 -4 -22 -3 -25 1 -3 4 -19 7 -36 5z"/>
<path d="M612 223 c-50 -15 -63 -32 -31 -41 12 -3 12 -2 0 6 -11 8 -1 14 42
27 31 9 57 18 57 21 0 6 -9 4 -68 -13z"/>
<path d="M3580 220 c36 -3 74 -3 85 1 11 4 -17 7 -65 7 l-85 -1 65 -7z"/>
<path d="M490 191 c-8 -5 -44 -18 -80 -30 -36 -13 -72 -25 -80 -29 -8 -3 -67
-6 -130 -6 -93 -1 -121 -4 -143 -18 -14 -10 -33 -18 -42 -18 -11 0 -15 -11
-15 -45 l0 -45 1941 0 c1373 0 1938 3 1934 11 -4 6 -13 8 -21 5 -8 -3 -14 -1
-14 5 0 6 -4 8 -9 4 -13 -7 -33 30 -29 53 2 14 -3 16 -32 14 -19 -2 -49 -13
-67 -23 -20 -13 -34 -16 -38 -9 -3 5 -13 10 -21 10 -8 0 -28 10 -44 22 -22 16
-33 19 -41 11 -6 -6 -18 -9 -25 -6 -8 3 -14 1 -14 -5 0 -12 -49 -10 -69 2 -8
5 -16 4 -21 -3 -5 -9 -12 -8 -25 6 -16 15 -33 18 -112 15 -51 -1 -112 -9 -136
-17 -44 -14 -133 -30 -108 -19 10 5 4 12 -19 24 -26 14 -40 15 -57 7 -16 -7
-26 -7 -37 2 -15 13 -31 14 -158 11 -48 -1 -95 3 -105 8 -17 9 -163 0 -181
-12 -4 -3 -14 3 -21 12 -10 15 -24 17 -75 14 -46 -3 -72 0 -95 13 -29 15 -38
15 -94 2 -34 -8 -95 -15 -136 -16 -40 -1 -92 -8 -115 -16 -46 -16 -96 -20 -96
-6 0 5 10 12 23 17 15 5 0 9 -53 11 -41 2 -84 -1 -95 -6 -28 -14 -189 -31
-195 -21 -12 19 -190 9 -190 -10 0 -5 -14 -13 -31 -19 -27 -9 -34 -8 -49 9
-20 23 -90 27 -137 9 -15 -6 -37 -15 -48 -19 -11 -4 -38 -15 -60 -23 -59 -24
-117 -27 -79 -4 12 6 41 26 65 42 24 17 51 33 59 38 26 13 -92 -2 -170 -22
-41 -11 -102 -29 -135 -41 -33 -12 -82 -28 -110 -36 -27 -7 -65 -18 -82 -23
-18 -5 -33 -6 -33 -1 0 5 10 12 23 15 12 4 46 18 75 31 29 13 57 24 62 24 6 0
10 5 10 11 0 5 4 7 10 4 14 -9 52 14 44 27 -5 7 -1 9 9 5 10 -3 25 -3 35 0 13
5 8 9 -18 15 -24 5 -38 3 -45 -5 -18 -23 -88 -38 -126 -27 -18 6 -41 10 -49 9
-8 -1 -4 -4 10 -8 21 -6 18 -9 -25 -15 -27 -4 -88 -16 -135 -26 -47 -10 -110
-21 -140 -23 l-54 -4 44 23 c25 13 54 23 64 24 33 0 156 40 156 50 0 6 5 10
11 10 11 0 39 24 39 34 0 9 -33 7 -50 -3z m1785 -51 c-3 -5 -13 -10 -21 -10
-8 0 -14 5 -14 10 0 6 9 10 21 10 11 0 17 -4 14 -10z m-65 -29 c0 -10 -55 -9
-66 2 -4 4 9 7 29 7 21 0 37 -4 37 -9z m343 -8 c-7 -2 -19 -2 -25 0 -7 3 -2 5
12 5 14 0 19 -2 13 -5z m-1085 -10 c-10 -2 -26 -2 -35 0 -10 3 -2 5 17 5 19 0
27 -2 18 -5z m389 1 c-3 -3 -12 -4 -19 -1 -8 3 -5 6 6 6 11 1 17 -2 13 -5z
m1513 -4 c-20 -13 -90 -13 -90 0 0 6 24 10 53 10 37 0 48 -3 37 -10z m-167
-77 c-13 -2 -35 -2 -50 0 -16 2 -5 4 22 4 28 0 40 -2 28 -4z"/>
<path d="M2058 173 c6 -2 18 -2 25 0 6 3 1 5 -13 5 -14 0 -19 -2 -12 -5z"/>
<path d="M2896 172 c-13 -12 -5 -22 19 -22 14 0 25 4 25 9 0 10 -36 21 -44 13z"/>
<path d="M3559 161 c14 -25 20 -27 17 -4 -2 9 -8 19 -15 21 -10 3 -10 0 -2
-17z"/>
<path d="M1315 160 c-3 -5 -1 -10 4 -10 6 0 11 5 11 10 0 6 -2 10 -4 10 -3 0
-8 -4 -11 -10z"/>
<path d="M3950 120 c0 -5 5 -10 11 -10 5 0 7 5 4 10 -3 6 -8 10 -11 10 -2 0
-4 -4 -4 -10z"/>
</g>
</svg>
