<?xml version="1.0" encoding="UTF-8"?>
<svg version="1.1" xmlns="http://www.w3.org/2000/svg" width="512" height="512">
<path d="M0 0 C1.33894177 -0.00445668 1.33894177 -0.00445668 2.70493287 -0.0090034 C5.70809839 -0.01770305 8.71122411 -0.01919972 11.71440125 -0.02069092 C13.86271755 -0.02531818 16.01103302 -0.03034271 18.15934753 -0.03573608 C24.00442735 -0.04887057 29.84949567 -0.05530704 35.69458795 -0.05974674 C39.34452167 -0.06267566 42.99445224 -0.06678011 46.64438438 -0.07125092 C58.05886963 -0.08492834 69.47334769 -0.09459391 80.88784057 -0.09845281 C94.07414392 -0.10293491 107.26034367 -0.12048891 120.44661552 -0.1494534 C130.6326749 -0.17105283 140.8187051 -0.18115615 151.00478715 -0.18249393 C157.09154278 -0.18354316 163.17820107 -0.18947622 169.26493263 -0.20731354 C174.98995438 -0.2237642 180.7148053 -0.22596429 186.43984222 -0.21717453 C188.54171645 -0.21640256 190.64359975 -0.22076789 192.74545097 -0.23063278 C195.61387111 -0.24330652 198.48168202 -0.23750025 201.35009766 -0.22705078 C202.59898906 -0.23913539 202.59898906 -0.23913539 203.87311059 -0.25146413 C209.58980035 -0.20272667 213.52650067 1.01724047 218.19364929 4.50762939 C227.22509413 14.08493079 224.76624429 31.99622253 224.74052429 44.26544189 C224.73998047 45.23920776 224.73943665 46.21297363 224.73887634 47.21624756 C224.69795292 63.1790011 223.74706259 78.49028393 220.36552429 94.14044189 C220.14590027 95.16959717 219.92627625 96.19875244 219.69999695 97.25909424 C210.77988187 137.89517404 192.61702143 176.53980939 165.36552429 208.14044189 C164.42028842 209.26832227 163.47635762 210.39729721 162.53349304 211.52716064 C147.5784276 229.3491589 130.23901443 245.86088701 110.36552429 258.14044189 C106.26964615 253.48603491 103.47523063 248.22262591 100.49052429 242.82794189 C95.92212912 234.6558857 91.28979572 226.52858261 86.55302429 218.45294189 C81.59758511 209.98892248 76.67746519 201.50560959 71.80293274 192.99478149 C71.1041487 191.77511601 70.40460528 190.55588523 69.70423889 189.33712769 C66.07455244 183.01854897 62.53449945 176.70359857 59.36552429 170.14044189 C60.10157898 169.54876221 60.83763367 168.95708252 61.59599304 168.34747314 C62.57181335 167.55727783 63.54763367 166.76708252 64.55302429 165.95294189 C65.51595398 165.17563721 66.47888367 164.39833252 67.47099304 163.59747314 C70.4208456 161.17044283 70.4208456 161.17044283 73.10380554 158.33966064 C75.36552429 156.14044189 75.36552429 156.14044189 77.36552429 156.14044189 C77.62591492 155.54618408 77.88630554 154.95192627 78.15458679 154.33966064 C79.44923525 151.98841199 80.74199898 150.72800341 82.74052429 148.95294189 C94.22134432 137.76489324 103.40017164 122.4457292 109.56083679 107.77716064 C109.83290955 107.13565063 110.1049823 106.49414062 110.38529968 105.83319092 C111.0478575 104.26999131 111.70704582 102.70536425 112.36552429 101.14044189 C111.74745344 101.14320727 111.12938259 101.14597265 110.49258232 101.14882183 C95.44410091 101.21511416 80.39566438 101.26473824 65.34707451 101.29587841 C58.0696424 101.31133837 50.79230784 101.33241112 43.51493835 101.36676025 C37.17097251 101.39668942 30.82707732 101.41602324 24.48304284 101.42270738 C21.12480999 101.42661372 17.76677928 101.4357757 14.4086113 101.45763206 C10.65698472 101.47938449 6.90577793 101.48240964 3.15409851 101.48101807 C2.0442308 101.49180389 0.9343631 101.50258972 -0.20913696 101.51370239 C-6.55381529 101.48820901 -11.41669544 101.14421302 -16.27900696 96.60528564 C-20.06874763 91.64947092 -20.7860134 88.96624588 -20.79560852 82.84844971 C-20.80305588 81.72130051 -20.80305588 81.72130051 -20.81065369 80.57138062 C-20.82528979 78.0787668 -20.83208065 75.58621668 -20.83760071 73.09356689 C-20.84335216 71.36201984 -20.8491099 69.6304728 -20.85487366 67.89892578 C-20.86538858 64.26393334 -20.87122763 60.62896304 -20.87471008 56.99395752 C-20.88018762 52.34231551 -20.9041976 47.69096728 -20.93268204 43.03941727 C-20.95133467 39.46027786 -20.95651547 35.88120874 -20.95804596 32.30202484 C-20.96106846 30.58765817 -20.96908342 28.87329261 -20.98223114 27.15897369 C-20.99934236 24.75576172 -20.99739895 22.35326088 -20.99092102 19.95001221 C-21.0001358 19.24536835 -21.00935059 18.54072449 -21.0188446 17.81472778 C-20.97430952 12.52358898 -19.73593898 8.4443899 -16.13447571 4.49591064 C-10.68875124 0.25561998 -6.69751657 -0.00691454 0 0 Z " fill="#000000" transform="translate(287.6344757080078,210.85955810546875)"/>
<path d="M0 0 C1.51802216 0.00081573 1.51802216 0.00081573 3.06671143 0.00164795 C19.59530572 0.04238044 35.52913999 0.94575778 51.75 4.375 C52.79188477 4.59462402 53.83376953 4.81424805 54.90722656 5.04052734 C96.2958603 14.06833523 132.91316247 32.89091013 165.75 59.375 C166.6575 60.07496094 167.565 60.77492187 168.5 61.49609375 C172.29432711 64.66462038 174.40934697 67.98664377 175.1015625 72.83984375 C175.32198996 79.5027648 173.88086862 83.89138385 169.44876099 89.05718994 C168.54672943 89.96160828 167.64469788 90.86602661 166.71533203 91.79785156 C166.21573975 92.30270081 165.71614746 92.80755005 165.20141602 93.32769775 C163.5609728 94.98125999 161.90990141 96.62370422 160.2578125 98.265625 C159.10778682 99.41767342 157.95820664 100.57016671 156.80905151 101.7230835 C154.40472717 104.13181996 151.99508789 106.53507396 149.58154297 108.93457031 C146.49231785 112.00668513 143.41678297 115.09209862 140.34509468 118.18173599 C137.97588274 120.56179928 135.5995585 122.93465774 133.221035 125.30541229 C132.08416552 126.44028452 130.94950934 127.57737851 129.81714249 128.71674347 C128.23307079 130.30845384 126.63966418 131.8901985 125.04345703 133.46972656 C124.13983429 134.37096252 123.23621155 135.27219849 122.3052063 136.20074463 C117.84548192 139.99557704 113.7777929 140.84921662 108.0703125 140.6796875 C102.11785646 139.89805186 97.92056572 136.58975434 93.4375 132.8125 C76.65389921 119.01493861 55.6816085 110.53164193 34.75 105.375 C34.09080566 105.20983887 33.43161133 105.04467773 32.75244141 104.87451172 C-3.82255901 96.16532053 -45.51076642 103.80832592 -77.53637695 122.99414062 C-85.50914693 127.93593226 -92.96478126 133.47695267 -100.25 139.375 C-100.94738281 139.92929688 -101.64476562 140.48359375 -102.36328125 141.0546875 C-106.84227611 144.72925091 -110.51956085 148.95802771 -114.25 153.375 C-115.47591545 154.79448105 -116.70502956 156.21120661 -117.9375 157.625 C-118.47761719 158.24890625 -119.01773438 158.8728125 -119.57421875 159.515625 C-121.39956148 161.540947 -123.30760481 163.4622274 -125.25 165.375 C-136.19154669 159.37925346 -147.02159444 153.21348982 -157.7878418 146.90844727 C-165.36287477 142.47252037 -172.9563917 138.0699235 -180.5625 133.6875 C-182.18067627 132.75502441 -182.18067627 132.75502441 -183.83154297 131.80371094 C-185.94936937 130.58331227 -188.06720764 129.3629342 -190.18505859 128.14257812 C-197.54618561 123.89735273 -204.89783111 119.63571474 -212.25 115.375 C-211.38007577 111.25850305 -209.38357883 108.35741792 -206.9375 105 C-206.48874512 104.38205566 -206.03999023 103.76411133 -205.57763672 103.12744141 C-192.28355028 85.07990621 -176.24949063 67.7693578 -158.25 54.375 C-157.12995576 53.51465163 -156.01018278 52.65395005 -154.890625 51.79296875 C-145.43669388 44.61092238 -135.52141573 38.31828014 -125.25 32.375 C-124.57275879 31.98070801 -123.89551758 31.58641602 -123.19775391 31.18017578 C-97.22308664 16.24012311 -67.812012 6.84570317 -38.25 2.375 C-37.12754883 2.19839844 -36.00509766 2.02179687 -34.84863281 1.83984375 C-23.23552257 0.1829414 -11.71820055 -0.02373513 0 0 Z " fill="#000000" transform="translate(255.25,-0.375)"/>
<path d="M0 0 C5.702436 5.51848645 11.14580467 11.38360478 16.0625 17.61328125 C18.9969427 21.22808869 22.41845805 24.04233955 26 27 C26.88171875 27.7425 27.7634375 28.485 28.671875 29.25 C56.342174 51.61563028 90.51914407 63.42655146 126 63.375 C126.67053406 63.37412384 127.34106812 63.37324768 128.03192139 63.37234497 C147.4111849 63.28950801 164.71089095 59.36843247 182.85375977 52.69262695 C185.21345578 51.93111432 187.56250014 51.44470967 190 51 C190.60920288 52.06806885 190.60920288 52.06806885 191.23071289 53.15771484 C204.19891587 75.88796662 217.22544113 98.58311752 230.43408203 121.17480469 C231.49113151 122.9830233 232.54629117 124.79234866 233.59912109 126.60302734 C234.4825097 128.11454867 235.37487969 129.62089002 236.27978516 131.11962891 C239 135.67953351 239 135.67953351 239 139 C215.97985009 151.2656982 189.73227326 159.15613219 164 163 C162.84137451 163.18183838 161.68274902 163.36367676 160.48901367 163.55102539 C149.13489669 165.17201518 137.8938605 165.35704831 126.4375 165.3125 C125.46544617 165.31067719 124.49339233 165.30885437 123.49188232 165.30697632 C109.14400164 165.26166971 95.10586094 164.85567022 81 162 C80.0821875 161.81775879 79.164375 161.63551758 78.21875 161.44775391 C71.76719743 160.13618658 65.37709882 158.63355484 59 157 C58.25588867 156.81211914 57.51177734 156.62423828 56.74511719 156.43066406 C18.47428177 146.57754857 -17.18464759 125.80620857 -46 99 C-47.3709163 97.80778787 -48.74576624 96.62008001 -50.125 95.4375 C-63.79289235 83.50215738 -78.26948365 68.04423838 -87 52 C-87 51.34 -87 50.68 -87 50 C-86.2879541 49.59386475 -85.5759082 49.18772949 -84.84228516 48.76928711 C-62.16893432 35.83354761 -39.5217934 22.85398807 -17.00097656 9.65380859 C-11.37391998 6.36100419 -5.71529837 3.13729277 0 0 Z " fill="#000000" transform="translate(130,347)"/>
<path d="M0 0 C7.90535539 3.84381706 15.56508071 7.95537268 23.125 12.4375 C25.23402286 13.67768236 27.34341061 14.91724438 29.453125 16.15625 C30.53142578 16.79046875 31.60972656 17.4246875 32.72070312 18.078125 C38.08994724 21.22484103 43.48207737 24.33159417 48.875 27.4375 C50.46538086 28.35402344 50.46538086 28.35402344 52.08789062 29.2890625 C54.25966072 30.54054665 56.43153685 31.79184681 58.60351562 33.04296875 C64.02446492 36.16648295 69.44336866 39.29354116 74.86236572 42.42044067 C77.65034759 44.02913682 80.43846015 45.63760642 83.2265625 47.24609375 C84.81770833 48.1640625 86.40885417 49.08203125 88 50 C87.4105282 53.23095612 86.64527444 56.22792398 85.51171875 59.30859375 C72.16281831 96.59066462 72.65085335 133.73937039 86.30737305 170.85375977 C87.06888568 173.21345578 87.55529033 175.56250014 88 178 C87.2879541 178.40613525 86.5759082 178.81227051 85.84228516 179.23071289 C72.79836469 186.67261058 59.75936325 194.12280801 46.75 201.625 C45.16566162 202.5385022 45.16566162 202.5385022 43.54931641 203.47045898 C38.15223019 206.58702224 32.76506926 209.71953775 27.390625 212.875 C26.3171582 213.5045459 25.24369141 214.1340918 24.13769531 214.78271484 C22.11968058 215.96758406 20.10326774 217.15518806 18.08886719 218.34619141 C12.17351897 221.81987197 6.17747446 225.01678904 0 228 C-17.39959025 191.92567222 -26.70756901 154.1120607 -26.375 114.0625 C-26.37034729 113.0570816 -26.36569458 112.05166321 -26.36090088 111.01577759 C-26.28229258 96.50851589 -25.98404929 82.24729372 -23 68 C-22.80132324 67.02514648 -22.60264648 66.05029297 -22.39794922 65.04589844 C-11.11698781 11.11698781 -11.11698781 11.11698781 0 0 Z " fill="#000000" transform="translate(26,142)"/>
</svg>
