<?xml version="1.0" standalone="no"?>
<!DOCTYPE svg PUBLIC "-//W3C//DTD SVG 20010904//EN"
 "http://www.w3.org/TR/2001/REC-SVG-20010904/DTD/svg10.dtd">
<svg version="1.0" xmlns="http://www.w3.org/2000/svg"
 width="512.000000pt" height="512.000000pt" viewBox="0 0 512.000000 512.000000"
 preserveAspectRatio="xMidYMid meet">

<g transform="translate(0.000000,512.000000) scale(0.100000,-0.100000)"
fill="#000000" stroke="none">
<path d="M2346 4844 c-415 -75 -768 -375 -911 -774 -53 -149 -59 -194 -64
-520 l-6 -305 -225 -5 -225 -5 -68 -32 c-89 -42 -168 -121 -210 -210 l-32 -68
-3 -1110 c-2 -1091 -2 -1111 18 -1177 43 -142 169 -255 318 -287 38 -8 498
-11 1625 -11 1709 0 1625 -3 1735 55 96 50 171 140 202 243 20 66 20 86 18
1177 l-3 1110 -31 65 c-45 95 -111 162 -202 207 l-76 38 -225 5 -226 5 -6 310
c-5 270 -8 320 -27 391 -57 221 -148 387 -297 543 -182 192 -404 311 -659 356
-109 19 -313 18 -420 -1z m318 -414 c168 -25 316 -99 436 -219 87 -88 140
-169 180 -279 40 -111 50 -201 50 -463 l0 -229 -770 0 -770 0 0 243 c1 264 10
346 54 461 81 212 254 379 469 451 127 42 229 52 351 35z m1 -2055 c320 -83
429 -490 191 -713 -28 -26 -61 -54 -73 -62 l-22 -15 69 -275 c38 -151 70 -278
70 -282 0 -5 -153 -8 -340 -8 -187 0 -340 3 -340 8 0 4 32 131 70 282 l69 275
-22 15 c-59 39 -130 118 -157 174 -161 326 135 691 485 601z"/>
</g>
</svg>
